<svg xmlns="http://www.w3.org/2000/svg" viewBox="0 0 1440 900" width="1440" height="900" role="img"><rect x="0" y="0" width="1440" height="900" rx="0" fill="#181314"/><rect x="0" y="0" width="1440" height="46" rx="0" fill="#231B1D"/><circle cx="30" cy="23" r="5" fill="#847678" opacity="0.5"/><circle cx="50" cy="23" r="5" fill="#847678" opacity="0.35"/><circle cx="70" cy="23" r="5" fill="#847678" opacity="0.25"/><rect x="550" y="14" width="340" height="18" rx="9" fill="#181314" opacity="0.7"/><rect x="72" y="84" width="132" height="13" rx="2" fill="#EFE8E6"/><rect x="920" y="87" width="58" height="8" rx="2" fill="#847678" opacity="0.55"/><rect x="1008" y="87" width="58" height="8" rx="2" fill="#847678" opacity="0.55"/><rect x="1096" y="87" width="58" height="8" rx="2" fill="#847678" opacity="0.55"/><rect x="1184" y="87" width="58" height="8" rx="2" fill="#847678" opacity="0.55"/><rect x="1272" y="76" width="96" height="32" rx="16" fill="#C0836F"/><line x1="0" y1="140" x2="1440" y2="140" stroke="#EFE8E6" stroke-width="1" opacity="0.1"/><rect x="72" y="196" width="96" height="8" rx="4" fill="#C0836F"/><rect x="72" y="232" width="560" height="46" rx="0" fill="#EFE8E6"/><rect x="72" y="298" width="690" height="46" rx="0" fill="#EFE8E6"/><rect x="72" y="364" width="400" height="46" rx="0" fill="#EFE8E6"/><rect x="72" y="456" width="380" height="10" rx="0" fill="#847678" opacity="0.6"/><rect x="72" y="480" width="300" height="10" rx="0" fill="#847678" opacity="0.6"/><rect x="72" y="528" width="168" height="46" rx="23" fill="#C0836F"/><rect x="268" y="528" width="130" height="46" rx="23" fill="none"/><rect x="268" y="528" width="130" height="46" rx="23" fill="none" stroke="#EFE8E6" stroke-width="1" opacity="0.35"/><defs><linearGradient id="hero" x1="0" y1="0" x2="1" y2="1">
		<stop offset="0" stop-color="#C0836F" stop-opacity="0.55"/>
		<stop offset="1" stop-color="#C0836F" stop-opacity="0.12"/></linearGradient></defs><rect x="880" y="196" width="488" height="380" rx="4" fill="#231B1D"/><rect x="880" y="196" width="488" height="380" rx="4" fill="url(#hero)"/><circle cx="1124" cy="386" r="62" fill="#EFE8E6" opacity="0.12"/><circle cx="1124" cy="386" r="30" fill="#C0836F" opacity="0.85"/><line x1="72" y1="656" x2="1368" y2="656" stroke="#EFE8E6" stroke-width="1" opacity="0.1"/><rect x="72" y="700" width="384" height="118" rx="3" fill="#231B1D"/><rect x="72" y="700" width="384" height="118" rx="3" fill="#C0836F" opacity="0.07"/><rect x="72" y="838" width="180" height="9" rx="0" fill="#847678" opacity="0.55"/><rect x="72" y="859" width="260" height="9" rx="0" fill="#847678" opacity="0.55"/><rect x="504" y="700" width="384" height="118" rx="3" fill="#231B1D"/><rect x="504" y="700" width="384" height="118" rx="3" fill="#C0836F" opacity="0.16"/><rect x="504" y="838" width="180" height="9" rx="0" fill="#847678" opacity="0.55"/><rect x="504" y="859" width="260" height="9" rx="0" fill="#847678" opacity="0.55"/><rect x="936" y="700" width="384" height="118" rx="3" fill="#231B1D"/><rect x="936" y="700" width="384" height="118" rx="3" fill="#C0836F" opacity="0.07"/><rect x="936" y="838" width="180" height="9" rx="0" fill="#847678" opacity="0.55"/><rect x="936" y="859" width="260" height="9" rx="0" fill="#847678" opacity="0.55"/></svg>
