<svg xmlns="http://www.w3.org/2000/svg" viewBox="0 0 1440 900" width="1440" height="900" role="img"><rect x="0" y="0" width="1440" height="900" rx="0" fill="#131011"/><rect x="64" y="52" width="150" height="13" rx="2" fill="#ECE6E5"/><rect x="1000" y="55" width="68" height="8" rx="2" fill="#7F7476" opacity="0.6"/><rect x="1104" y="55" width="68" height="8" rx="2" fill="#7F7476" opacity="0.6"/><rect x="1208" y="55" width="68" height="8" rx="2" fill="#7F7476" opacity="0.6"/><rect x="1300" y="42" width="76" height="34" rx="17" fill="#C0707F"/><defs><linearGradient id="newhero" x1="0" y1="0" x2="1" y2="1">
		<stop offset="0" stop-color="#C0707F" stop-opacity="0.5"/>
		<stop offset="1" stop-color="#C0707F" stop-opacity="0.08"/></linearGradient></defs><rect x="64" y="190" width="86" height="7" rx="3" fill="#C0707F"/><rect x="64" y="232" width="620" height="58" rx="0" fill="#ECE6E5"/><rect x="64" y="312" width="480" height="58" rx="0" fill="#ECE6E5"/><rect x="64" y="400" width="340" height="10" rx="0" fill="#7F7476" opacity="0.6"/><rect x="64" y="424" width="260" height="10" rx="0" fill="#7F7476" opacity="0.6"/><rect x="64" y="470" width="176" height="48" rx="24" fill="#C0707F"/><rect x="830" y="150" width="546" height="470" rx="4" fill="#1D1719"/><rect x="830" y="150" width="546" height="470" rx="4" fill="url(#newhero)"/><circle cx="1103" cy="385" r="58" fill="#C0707F" opacity="0.9"/><line x1="64" y1="700" x2="1376" y2="700" stroke="#ECE6E5" stroke-width="1" opacity="0.12"/><rect x="64" y="744" width="404" height="96" rx="3" fill="#1D1719"/><rect x="64" y="744" width="404" height="96" rx="3" fill="#C0707F" opacity="0.07"/><rect x="506" y="744" width="404" height="96" rx="3" fill="#1D1719"/><rect x="506" y="744" width="404" height="96" rx="3" fill="#C0707F" opacity="0.2"/><rect x="948" y="744" width="404" height="96" rx="3" fill="#1D1719"/><rect x="948" y="744" width="404" height="96" rx="3" fill="#C0707F" opacity="0.07"/></svg>
