<svg xmlns="http://www.w3.org/2000/svg" viewBox="0 0 1440 810" width="1440" height="810" role="img"><rect x="0" y="0" width="1440" height="810" rx="0" fill="#131011"/><line x1="0" y1="0" x2="0" y2="810" stroke="#6E6466" stroke-width="1" opacity="0.09"/><line x1="48" y1="0" x2="48" y2="810" stroke="#6E6466" stroke-width="1" opacity="0.09"/><line x1="96" y1="0" x2="96" y2="810" stroke="#6E6466" stroke-width="1" opacity="0.09"/><line x1="144" y1="0" x2="144" y2="810" stroke="#6E6466" stroke-width="1" opacity="0.09"/><line x1="192" y1="0" x2="192" y2="810" stroke="#6E6466" stroke-width="1" opacity="0.09"/><line x1="240" y1="0" x2="240" y2="810" stroke="#6E6466" stroke-width="1" opacity="0.09"/><line x1="288" y1="0" x2="288" y2="810" stroke="#6E6466" stroke-width="1" opacity="0.09"/><line x1="336" y1="0" x2="336" y2="810" stroke="#6E6466" stroke-width="1" opacity="0.09"/><line x1="384" y1="0" x2="384" y2="810" stroke="#6E6466" stroke-width="1" opacity="0.09"/><line x1="432" y1="0" x2="432" y2="810" stroke="#6E6466" stroke-width="1" opacity="0.09"/><line x1="480" y1="0" x2="480" y2="810" stroke="#6E6466" stroke-width="1" opacity="0.09"/><line x1="528" y1="0" x2="528" y2="810" stroke="#6E6466" stroke-width="1" opacity="0.09"/><line x1="576" y1="0" x2="576" y2="810" stroke="#6E6466" stroke-width="1" opacity="0.09"/><line x1="624" y1="0" x2="624" y2="810" stroke="#6E6466" stroke-width="1" opacity="0.09"/><line x1="672" y1="0" x2="672" y2="810" stroke="#6E6466" stroke-width="1" opacity="0.09"/><line x1="720" y1="0" x2="720" y2="810" stroke="#6E6466" stroke-width="1" opacity="0.09"/><line x1="768" y1="0" x2="768" y2="810" stroke="#6E6466" stroke-width="1" opacity="0.09"/><line x1="816" y1="0" x2="816" y2="810" stroke="#6E6466" stroke-width="1" opacity="0.09"/><line x1="864" y1="0" x2="864" y2="810" stroke="#6E6466" stroke-width="1" opacity="0.09"/><line x1="912" y1="0" x2="912" y2="810" stroke="#6E6466" stroke-width="1" opacity="0.09"/><line x1="960" y1="0" x2="960" y2="810" stroke="#6E6466" stroke-width="1" opacity="0.09"/><line x1="1008" y1="0" x2="1008" y2="810" stroke="#6E6466" stroke-width="1" opacity="0.09"/><line x1="1056" y1="0" x2="1056" y2="810" stroke="#6E6466" stroke-width="1" opacity="0.09"/><line x1="1104" y1="0" x2="1104" y2="810" stroke="#6E6466" stroke-width="1" opacity="0.09"/><line x1="1152" y1="0" x2="1152" y2="810" stroke="#6E6466" stroke-width="1" opacity="0.09"/><line x1="1200" y1="0" x2="1200" y2="810" stroke="#6E6466" stroke-width="1" opacity="0.09"/><line x1="1248" y1="0" x2="1248" y2="810" stroke="#6E6466" stroke-width="1" opacity="0.09"/><line x1="1296" y1="0" x2="1296" y2="810" stroke="#6E6466" stroke-width="1" opacity="0.09"/><line x1="1344" y1="0" x2="1344" y2="810" stroke="#6E6466" stroke-width="1" opacity="0.09"/><line x1="1392" y1="0" x2="1392" y2="810" stroke="#6E6466" stroke-width="1" opacity="0.09"/><line x1="1440" y1="0" x2="1440" y2="810" stroke="#6E6466" stroke-width="1" opacity="0.09"/><line x1="0" y1="0" x2="1440" y2="0" stroke="#6E6466" stroke-width="1" opacity="0.09"/><line x1="0" y1="48" x2="1440" y2="48" stroke="#6E6466" stroke-width="1" opacity="0.09"/><line x1="0" y1="96" x2="1440" y2="96" stroke="#6E6466" stroke-width="1" opacity="0.09"/><line x1="0" y1="144" x2="1440" y2="144" stroke="#6E6466" stroke-width="1" opacity="0.09"/><line x1="0" y1="192" x2="1440" y2="192" stroke="#6E6466" stroke-width="1" opacity="0.09"/><line x1="0" y1="240" x2="1440" y2="240" stroke="#6E6466" stroke-width="1" opacity="0.09"/><line x1="0" y1="288" x2="1440" y2="288" stroke="#6E6466" stroke-width="1" opacity="0.09"/><line x1="0" y1="336" x2="1440" y2="336" stroke="#6E6466" stroke-width="1" opacity="0.09"/><line x1="0" y1="384" x2="1440" y2="384" stroke="#6E6466" stroke-width="1" opacity="0.09"/><line x1="0" y1="432" x2="1440" y2="432" stroke="#6E6466" stroke-width="1" opacity="0.09"/><line x1="0" y1="480" x2="1440" y2="480" stroke="#6E6466" stroke-width="1" opacity="0.09"/><line x1="0" y1="528" x2="1440" y2="528" stroke="#6E6466" stroke-width="1" opacity="0.09"/><line x1="0" y1="576" x2="1440" y2="576" stroke="#6E6466" stroke-width="1" opacity="0.09"/><line x1="0" y1="624" x2="1440" y2="624" stroke="#6E6466" stroke-width="1" opacity="0.09"/><line x1="0" y1="672" x2="1440" y2="672" stroke="#6E6466" stroke-width="1" opacity="0.09"/><line x1="0" y1="720" x2="1440" y2="720" stroke="#6E6466" stroke-width="1" opacity="0.09"/><line x1="0" y1="768" x2="1440" y2="768" stroke="#6E6466" stroke-width="1" opacity="0.09"/><rect x="64" y="44" width="148" height="26" fill="none" stroke="#6E6466" stroke-width="1.5" opacity="0.75"/><rect x="1010" y="48" width="66" height="18" fill="none" stroke="#6E6466" stroke-width="1.5" opacity="0.75"/><rect x="1110" y="48" width="66" height="18" fill="none" stroke="#6E6466" stroke-width="1.5" opacity="0.75"/><rect x="1210" y="48" width="66" height="18" fill="none" stroke="#6E6466" stroke-width="1.5" opacity="0.75"/><rect x="64" y="168" width="620" height="54" fill="none" stroke="#6E6466" stroke-width="1.5" opacity="0.75"/><rect x="64" y="236" width="500" height="54" fill="none" stroke="#6E6466" stroke-width="1.5" opacity="0.75"/><rect x="64" y="310" width="360" height="54" fill="none" stroke="#6E6466" stroke-width="1.5" opacity="0.75"/><rect x="64" y="404" width="168" height="46" fill="none" stroke="#6E6466" stroke-width="1.5" opacity="0.75"/><rect x="830" y="140" width="546" height="460" fill="none" stroke="#6E6466" stroke-width="1.5" opacity="0.75"/><path d="M830 140 L1376 600 M1376 140 L830 600" stroke="#6E6466" stroke-width="1" opacity="0.4"/><rect x="64" y="660" width="404" height="100" fill="none" stroke="#6E6466" stroke-width="1.5" opacity="0.75"/><path d="M64 660 L468 760 M468 660 L64 760" stroke="#6E6466" stroke-width="1" opacity="0.4"/><rect x="506" y="660" width="404" height="100" fill="none" stroke="#6E6466" stroke-width="1.5" opacity="0.75"/><path d="M506 660 L910 760 M910 660 L506 760" stroke="#6E6466" stroke-width="1" opacity="0.4"/><rect x="948" y="660" width="404" height="100" fill="none" stroke="#6E6466" stroke-width="1.5" opacity="0.75"/><path d="M948 660 L1352 760 M1352 660 L948 760" stroke="#6E6466" stroke-width="1" opacity="0.4"/></svg>
